<?xml version="1.0" encoding="UTF-8"?>
<svg xmlns="http://www.w3.org/2000/svg" xmlns:xlink="http://www.w3.org/1999/xlink" width="450px" height="451px" viewBox="0 0 450 451" version="1.1">
<g id="surface1">
<path style=" stroke:none;fill-rule:nonzero;fill:rgb(94.901961%,94.901961%,94.901961%);fill-opacity:1;" d="M 43.265625 379.96875 L 39.304688 364.347656 C 32.277344 361.371094 25.089844 358.792969 17.773438 356.625 L 17.273438 363.886719 L 15.246094 355.886719 C 6.171875 353.296875 0 352.15625 0 352.15625 C 0 352.15625 8.335938 383.84375 25.824219 408.074219 L 46.199219 411.648438 L 30.371094 413.933594 C 32.570312 416.578125 34.933594 419.082031 37.449219 421.429688 C 62.886719 445.03125 91.222656 455.863281 100.734375 445.617188 C 110.25 435.375 97.335938 407.9375 71.898438 384.335938 C 64.011719 377.019531 54.105469 371.148438 44.1875 366.527344 Z M 43.265625 379.96875 "/>
<path style=" stroke:none;fill-rule:nonzero;fill:rgb(94.901961%,94.901961%,94.901961%);fill-opacity:1;" d="M 80.949219 363 L 85.632812 347.582031 C 81.160156 341.40625 76.339844 335.484375 71.199219 329.847656 L 67.015625 335.804688 L 69.414062 327.910156 C 62.988281 321.007812 58.292969 316.839844 58.292969 316.839844 C 58.292969 316.839844 49.042969 348.277344 51.484375 378.050781 L 67.078125 391.640625 L 52.34375 385.414062 C 52.859375 388.816406 53.585938 392.183594 54.527344 395.496094 C 64.097656 428.84375 82.753906 452.75 96.195312 448.898438 C 109.632812 445.042969 112.773438 414.886719 103.199219 381.539062 C 100.234375 371.199219 94.789062 361.054688 88.691406 351.976562 Z M 80.949219 363 "/>
<path style=" stroke:none;fill-rule:nonzero;fill:rgb(90.196078%,90.196078%,90.196078%);fill-opacity:1;" d="M 313.945312 106.851562 L 311.472656 106.851562 L 311.472656 39.171875 C 311.472656 17.539062 293.925781 0 272.28125 0 L 128.820312 0 C 107.175781 0 89.628906 17.539062 89.628906 39.171875 L 89.628906 410.476562 C 89.628906 432.113281 107.175781 449.652344 128.820312 449.652344 L 272.28125 449.652344 C 293.925781 449.652344 311.472656 432.113281 311.472656 410.476562 L 311.472656 155.027344 L 313.941406 155.027344 Z M 313.945312 106.851562 "/>
<path style=" stroke:none;fill-rule:nonzero;fill:rgb(100%,100%,100%);fill-opacity:1;" d="M 273.863281 10.1875 L 255.136719 10.1875 C 256.886719 14.472656 256.386719 19.347656 253.800781 23.191406 C 251.21875 27.03125 246.890625 29.335938 242.261719 29.335938 L 160.074219 29.335938 C 155.445312 29.335938 151.117188 27.03125 148.535156 23.1875 C 145.953125 19.347656 145.453125 14.472656 147.199219 10.1875 L 129.710938 10.1875 C 113.546875 10.1875 100.441406 23.285156 100.441406 39.441406 L 100.441406 410.207031 C 100.441406 426.363281 113.546875 439.460938 129.710938 439.460938 L 273.863281 439.460938 C 290.027344 439.460938 303.128906 426.363281 303.128906 410.207031 L 303.128906 39.441406 C 303.128906 23.285156 290.027344 10.1875 273.863281 10.1875 Z M 273.863281 10.1875 "/>
<path style=" stroke:none;fill-rule:nonzero;fill:rgb(80%,80%,80%);fill-opacity:1;" d="M 183.417969 157.882812 C 183.417969 152.605469 186.234375 147.734375 190.804688 145.097656 C 184.597656 141.515625 176.714844 142.902344 172.105469 148.390625 C 167.5 153.878906 167.5 161.882812 172.105469 167.371094 C 176.714844 172.859375 184.597656 174.246094 190.804688 170.664062 C 186.234375 168.03125 183.417969 163.15625 183.417969 157.882812 Z M 183.417969 157.882812 "/>
<path style=" stroke:none;fill-rule:nonzero;fill:rgb(80%,80%,80%);fill-opacity:1;" d="M 201.984375 157.882812 C 201.984375 152.605469 204.800781 147.734375 209.371094 145.097656 C 203.164062 141.515625 195.28125 142.902344 190.671875 148.390625 C 186.0625 153.878906 186.0625 161.882812 190.671875 167.371094 C 195.28125 172.859375 203.164062 174.246094 209.371094 170.664062 C 204.800781 168.03125 201.984375 163.15625 201.984375 157.882812 Z M 201.984375 157.882812 "/>
<path style=" stroke:none;fill-rule:nonzero;fill:rgb(42.352941%,38.823529%,100%);fill-opacity:1;" d="M 234.894531 157.882812 C 234.894531 166.035156 228.285156 172.644531 220.128906 172.644531 C 211.972656 172.644531 205.359375 166.035156 205.359375 157.882812 C 205.359375 149.730469 211.972656 143.121094 220.128906 143.121094 C 228.285156 143.121094 234.894531 149.730469 234.894531 157.882812 Z M 234.894531 157.882812 "/>
<path style=" stroke:none;fill-rule:nonzero;fill:rgb(80%,80%,80%);fill-opacity:1;" d="M 244.808594 203.988281 L 158.734375 203.988281 C 157.03125 203.984375 155.648438 202.605469 155.644531 200.898438 L 155.644531 114.863281 C 155.648438 113.160156 157.03125 111.777344 158.734375 111.773438 L 244.808594 111.773438 C 246.515625 111.777344 247.898438 113.160156 247.902344 114.863281 L 247.902344 200.898438 C 247.898438 202.605469 246.515625 203.984375 244.808594 203.988281 Z M 158.734375 113.011719 C 157.710938 113.011719 156.882812 113.839844 156.882812 114.863281 L 156.882812 200.898438 C 156.882812 201.921875 157.710938 202.75 158.734375 202.753906 L 244.808594 202.753906 C 245.832031 202.75 246.664062 201.921875 246.664062 200.898438 L 246.664062 114.863281 C 246.664062 113.839844 245.832031 113.011719 244.808594 113.011719 Z M 158.734375 113.011719 "/>
<path style=" stroke:none;fill-rule:nonzero;fill:rgb(80%,80%,80%);fill-opacity:1;" d="M 132.015625 269.9375 L 264.027344 269.9375 L 264.027344 271.171875 L 132.015625 271.171875 Z M 132.015625 269.9375 "/>
<path style=" stroke:none;fill-rule:nonzero;fill:rgb(42.352941%,38.823529%,100%);fill-opacity:1;" d="M 140.355469 258.054688 C 140.355469 260.355469 138.488281 262.222656 136.1875 262.222656 C 133.882812 262.222656 132.015625 260.355469 132.015625 258.054688 C 132.015625 255.753906 133.882812 253.886719 136.1875 253.886719 C 138.488281 253.886719 140.355469 255.753906 140.355469 258.054688 Z M 140.355469 258.054688 "/>
<path style=" stroke:none;fill-rule:nonzero;fill:rgb(80%,80%,80%);fill-opacity:1;" d="M 132.015625 311.605469 L 264.027344 311.605469 L 264.027344 312.839844 L 132.015625 312.839844 Z M 132.015625 311.605469 "/>
<path style=" stroke:none;fill-rule:nonzero;fill:rgb(42.352941%,38.823529%,100%);fill-opacity:1;" d="M 140.355469 299.722656 C 140.355469 302.023438 138.488281 303.890625 136.1875 303.890625 C 133.882812 303.890625 132.015625 302.023438 132.015625 299.722656 C 132.015625 297.421875 133.882812 295.554688 136.1875 295.554688 C 138.488281 295.554688 140.355469 297.421875 140.355469 299.722656 Z M 140.355469 299.722656 "/>
<path style=" stroke:none;fill-rule:nonzero;fill:rgb(42.352941%,38.823529%,100%);fill-opacity:1;" d="M 261.613281 359.054688 L 219.894531 359.054688 C 218.394531 359.054688 217.175781 357.839844 217.175781 356.339844 L 217.175781 341.722656 C 217.175781 340.222656 218.394531 339.007812 219.894531 339.007812 L 261.613281 339.007812 C 263.113281 339.007812 264.328125 340.222656 264.332031 341.722656 L 264.332031 356.339844 C 264.328125 357.839844 263.113281 359.054688 261.613281 359.054688 Z M 261.613281 359.054688 "/>
<path style=" stroke:none;fill-rule:nonzero;fill:rgb(42.352941%,38.823529%,100%);fill-opacity:1;" d="M 153.953125 258.054688 C 153.953125 260.355469 152.085938 262.222656 149.785156 262.222656 C 147.484375 262.222656 145.617188 260.355469 145.617188 258.054688 C 145.617188 255.753906 147.484375 253.886719 149.785156 253.886719 C 152.085938 253.886719 153.953125 255.753906 153.953125 258.054688 Z M 153.953125 258.054688 "/>
<path style=" stroke:none;fill-rule:nonzero;fill:rgb(42.352941%,38.823529%,100%);fill-opacity:1;" d="M 167.554688 258.054688 C 167.554688 260.355469 165.6875 262.222656 163.382812 262.222656 C 161.082031 262.222656 159.214844 260.355469 159.214844 258.054688 C 159.214844 255.753906 161.082031 253.886719 163.382812 253.886719 C 165.6875 253.886719 167.554688 255.753906 167.554688 258.054688 Z M 167.554688 258.054688 "/>
<path style=" stroke:none;fill-rule:nonzero;fill:rgb(42.352941%,38.823529%,100%);fill-opacity:1;" d="M 153.953125 299.722656 C 153.953125 302.023438 152.085938 303.890625 149.785156 303.890625 C 147.484375 303.890625 145.617188 302.023438 145.617188 299.722656 C 145.617188 297.421875 147.484375 295.554688 149.785156 295.554688 C 152.085938 295.554688 153.953125 297.421875 153.953125 299.722656 Z M 153.953125 299.722656 "/>
<path style=" stroke:none;fill-rule:nonzero;fill:rgb(42.352941%,38.823529%,100%);fill-opacity:1;" d="M 167.554688 299.722656 C 167.554688 302.023438 165.6875 303.890625 163.382812 303.890625 C 161.082031 303.890625 159.214844 302.023438 159.214844 299.722656 C 159.214844 297.421875 161.082031 295.554688 163.382812 295.554688 C 165.6875 295.554688 167.554688 297.421875 167.554688 299.722656 Z M 167.554688 299.722656 "/>
<path style=" stroke:none;fill-rule:nonzero;fill:rgb(24.705882%,23.921569%,33.72549%);fill-opacity:1;" d="M 448.226562 451.046875 L 14.546875 451.046875 C 13.617188 451.046875 12.863281 450.71875 12.863281 450.3125 C 12.863281 449.90625 13.617188 449.574219 14.546875 449.574219 L 448.226562 449.574219 C 449.15625 449.574219 449.90625 449.90625 449.90625 450.3125 C 449.90625 450.71875 449.15625 451.046875 448.226562 451.046875 Z M 448.226562 451.046875 "/>
<path style=" stroke:none;fill-rule:nonzero;fill:rgb(100%,72.156863%,72.156863%);fill-opacity:1;" d="M 341.078125 295.511719 C 341.375 295.648438 341.660156 295.804688 341.933594 295.988281 L 369.023438 284.429688 L 369.992188 277.296875 L 380.816406 277.230469 L 380.175781 293.589844 L 344.417969 303.042969 C 344.34375 303.289062 344.253906 303.535156 344.148438 303.773438 C 342.703125 306.851562 339.046875 308.183594 335.957031 306.757812 C 332.871094 305.332031 331.515625 301.683594 332.921875 298.589844 C 334.332031 295.496094 337.976562 294.121094 341.078125 295.511719 Z M 341.078125 295.511719 "/>
<path style=" stroke:none;fill-rule:nonzero;fill:rgb(100%,72.156863%,72.156863%);fill-opacity:1;" d="M 384.753906 443.769531 L 377.347656 443.769531 L 373.824219 415.21875 L 384.753906 415.21875 Z M 384.753906 443.769531 "/>
<path style=" stroke:none;fill-rule:nonzero;fill:rgb(18.431373%,18.039216%,25.490196%);fill-opacity:1;" d="M 372.058594 441.652344 L 386.339844 441.652344 L 386.339844 450.640625 L 363.066406 450.640625 C 363.066406 445.675781 367.09375 441.652344 372.058594 441.652344 Z M 372.058594 441.652344 "/>
<path style=" stroke:none;fill-rule:nonzero;fill:rgb(100%,72.156863%,72.156863%);fill-opacity:1;" d="M 413.554688 441.675781 L 406.183594 442.402344 L 399.875 414.335938 L 410.753906 413.265625 Z M 413.554688 441.675781 "/>
<path style=" stroke:none;fill-rule:nonzero;fill:rgb(18.431373%,18.039216%,25.490196%);fill-opacity:1;" d="M 400.710938 440.816406 L 414.925781 439.417969 L 415.804688 448.359375 L 392.644531 450.640625 C 392.15625 445.699219 395.769531 441.300781 400.710938 440.816406 Z M 400.710938 440.816406 "/>
<path style=" stroke:none;fill-rule:nonzero;fill:rgb(100%,72.156863%,72.156863%);fill-opacity:1;" d="M 401.648438 232.1875 C 401.648438 240.375 395.007812 247.015625 386.8125 247.015625 C 378.621094 247.015625 371.980469 240.375 371.980469 232.1875 C 371.980469 223.996094 378.621094 217.355469 386.8125 217.355469 C 395.007812 217.355469 401.648438 223.996094 401.648438 232.1875 Z M 401.648438 232.1875 "/>
<path style=" stroke:none;fill-rule:nonzero;fill:rgb(18.431373%,18.039216%,25.490196%);fill-opacity:1;" d="M 375.691406 437.992188 C 374.378906 437.996094 373.253906 437.054688 373.027344 435.761719 C 369.191406 414.496094 356.664062 344.953125 356.363281 343.027344 C 356.359375 342.984375 356.355469 342.941406 356.355469 342.894531 L 356.355469 337.710938 C 356.355469 337.519531 356.414062 337.335938 356.523438 337.183594 L 358.179688 334.867188 C 358.339844 334.640625 358.59375 334.5 358.871094 334.488281 C 368.304688 334.046875 399.210938 332.75 400.703125 334.613281 C 402.203125 336.488281 401.671875 342.167969 401.550781 343.285156 L 401.554688 343.402344 L 415.441406 432.148438 C 415.667969 433.621094 414.667969 435.003906 413.195312 435.25 L 404.523438 436.679688 C 403.191406 436.890625 401.898438 436.097656 401.488281 434.8125 C 398.808594 426.246094 389.8125 397.429688 386.695312 386.277344 C 386.65625 386.132812 386.515625 386.039062 386.363281 386.058594 C 386.214844 386.082031 386.101562 386.210938 386.105469 386.359375 C 386.261719 396.992188 386.636719 424.109375 386.765625 433.476562 L 386.78125 434.484375 C 386.792969 435.902344 385.71875 437.089844 384.308594 437.222656 L 375.945312 437.984375 C 375.863281 437.992188 375.777344 437.992188 375.691406 437.992188 Z M 375.691406 437.992188 "/>
<path style=" stroke:none;fill-rule:nonzero;fill:rgb(42.352941%,38.823529%,100%);fill-opacity:1;" d="M 377.398438 252.84375 C 374.808594 254.382812 373.261719 257.210938 372.371094 260.085938 C 370.726562 265.414062 369.734375 270.917969 369.421875 276.484375 L 368.480469 293.148438 L 356.851562 337.324219 C 366.933594 345.851562 372.746094 343.914062 386.316406 336.9375 C 399.886719 329.964844 401.4375 339.265625 401.4375 339.265625 L 404.148438 301.675781 L 408.027344 260.601562 C 407.15625 259.554688 406.171875 258.605469 405.089844 257.777344 C 397.828125 252.136719 388.378906 250.132812 379.453125 252.347656 Z M 377.398438 252.84375 "/>
<path style=" stroke:none;fill-rule:nonzero;fill:rgb(100%,72.156863%,72.156863%);fill-opacity:1;" d="M 373.621094 304.433594 C 373.933594 304.550781 374.238281 304.691406 374.527344 304.859375 L 401.316406 291.457031 L 401.757812 284.195312 L 412.808594 283.433594 L 413.402344 299.984375 L 377.605469 311.820312 C 377.003906 314.382812 374.878906 316.3125 372.269531 316.660156 C 369.65625 317.007812 367.097656 315.707031 365.847656 313.386719 C 364.597656 311.066406 364.914062 308.214844 366.640625 306.226562 C 368.367188 304.238281 371.148438 303.523438 373.621094 304.433594 Z M 373.621094 304.433594 "/>
<path style=" stroke:none;fill-rule:nonzero;fill:rgb(42.352941%,38.823529%,100%);fill-opacity:1;" d="M 407.832031 260.789062 C 414.421875 263.113281 415.585938 288.304688 415.585938 288.304688 C 407.832031 284.042969 398.527344 291.015625 398.527344 291.015625 C 398.527344 291.015625 396.585938 284.429688 394.261719 275.902344 C 392.832031 271.03125 394.003906 265.765625 397.363281 261.953125 C 397.363281 261.953125 401.242188 258.460938 407.832031 260.789062 Z M 407.832031 260.789062 "/>
<path style=" stroke:none;fill-rule:nonzero;fill:rgb(18.431373%,18.039216%,25.490196%);fill-opacity:1;" d="M 400.117188 236.105469 C 398.269531 234.628906 395.746094 237.316406 395.746094 237.316406 L 394.265625 224.011719 C 394.265625 224.011719 385.023438 225.121094 379.109375 223.644531 C 373.195312 222.167969 372.269531 229.003906 372.269531 229.003906 C 371.964844 226.242188 371.90625 223.460938 372.085938 220.6875 C 372.457031 217.363281 377.261719 214.035156 385.765625 211.820312 C 394.265625 209.601562 398.703125 219.210938 398.703125 219.210938 C 404.617188 222.164062 401.964844 237.585938 400.117188 236.105469 Z M 400.117188 236.105469 "/>
</g>
</svg>
